<?xml version="1.0" encoding="UTF-8"?>
<svg xmlns="http://www.w3.org/2000/svg" xmlns:xlink="http://www.w3.org/1999/xlink" version="1.1" viewBox="0 0 500 500">
  <defs>
    <style>
      .cls-1 {
        fill: url(#bec);
      }

      .cls-2 {
        fill: none;
      }

      .cls-3, .cls-4 {
        fill: #249576;
      }

      .cls-5 {
        fill: #3a388c;
      }

      .cls-6, .cls-7 {
        fill: #1d1d1b;
      }

      .cls-8 {
        fill: #f9f199;
      }

      .cls-9 {
        fill: #81358a;
      }

      .cls-10 {
        fill: #fff;
      }

      .cls-4 {
        opacity: .2;
      }

      .cls-11 {
        fill: #28348a;
      }

      .cls-12 {
        opacity: .7;
      }

      .cls-13 {
        fill: url(#Dégradé_sans_nom_57);
      }

      .cls-7 {
        stroke: #1d1d1b;
        stroke-miterlimit: 10;
      }

      .cls-14 {
        clip-path: url(#clippath);
      }
    </style>
    <clipPath id="clippath">
      <rect class="cls-2" y="0" width="500" height="500"/>
    </clipPath>
    <linearGradient id="bec" x1="354.3" y1="116.8" x2="363" y2="166.1" gradientUnits="userSpaceOnUse">
      <stop offset="0" stop-color="#51368c"/>
      <stop offset="0" stop-color="#5a328b"/>
      <stop offset=".1" stop-color="#722988"/>
      <stop offset=".2" stop-color="#9b1a84"/>
      <stop offset=".3" stop-color="#d2067f"/>
      <stop offset=".4" stop-color="#e5007e"/>
      <stop offset=".4" stop-color="#e72381"/>
      <stop offset=".5" stop-color="#ed6188"/>
      <stop offset=".7" stop-color="#f1948e"/>
      <stop offset=".8" stop-color="#f4bc93"/>
      <stop offset=".9" stop-color="#f7d996"/>
      <stop offset=".9" stop-color="#f8ea98"/>
      <stop offset="1" stop-color="#f9f199"/>
    </linearGradient>
    <linearGradient id="Dégradé_sans_nom_57" data-name="Dégradé sans nom 57" x1="353.2" y1="203.2" x2="357.2" y2="170.4" gradientUnits="userSpaceOnUse">
      <stop offset=".4" stop-color="#e5007e"/>
      <stop offset=".4" stop-color="#e72381"/>
      <stop offset=".5" stop-color="#ed6188"/>
      <stop offset=".7" stop-color="#f1948e"/>
      <stop offset=".8" stop-color="#f4bc93"/>
      <stop offset=".9" stop-color="#f7d996"/>
      <stop offset=".9" stop-color="#f8ea98"/>
      <stop offset="1" stop-color="#f9f199"/>
    </linearGradient>
  </defs>
  <!-- Generator: Adobe Illustrator 28.7.1, SVG Export Plug-In . SVG Version: 1.2.0 Build 142)  -->
  <g>
    <g id="héron">
      <g class="cls-14">
        <rect class="cls-3" y="0" width="500" height="500"/>
        <g id="heron">
          <path class="cls-1" d="M242.9,163.1l236.2-17.4c-140.5-20.1-210.4-13.7-210.4-13.7l-25.8,31.1Z"/>
          <path class="cls-13" d="M235.4,160.1l243,25.2c-141,15.9-210.7,7.5-210.7,7.5l-32.4-32.7Z"/>
          <path class="cls-10" d="M402.6,551.1c5.2-27.5,9.1-44.8,0-55.9-10-12.3-28.2-16.3-43-15.8-60.4,2-40.3-25.3-35.7-50.6,10.5-58.4,3.7-86.8-7.8-105.6-24.8-40.6-104-5.5-140-37.3-16.2-14.3-15.3-59.7,9.1-80.7,7-6,17.1-14,82.6-12.4,38.9,5,71.9,5.5,79,2,0,0-102.3-10.7-103.9-31.6-.8-11.2,31-16.7,27.8-31.3-1.2-5.6-43.9-32.7-54.9-32.7-21.4-8.6-71.7-3.8-97.9,1.4v4.3l25.2-2.4-22.9,10.5c21.7-5.8,39-3.5,50.5,0-17.1,10-32.7,24.2-46.2,37.7-13.1,13.2-15.7,20.2-22.5,32-18.1,31.9-41.6,177.3,96.5,181.1,14.4.4,27.1-3.4,38.7,5.3,13.4,10,19.4,31.7,13.4,47.8-10.2,27.3-53.8,34.1-82.2,29.6-23.1-3.6-22.7-12.5-39.7-14.3-49.6-5.4-99,65.6-119.9,111.3-14.7,32.1-22.1,48.2-17.2,61.6,12,33.3,96.2,55.2,414.3,4.3-2.2-4-5-10-6.7-17.7-3.3-15.2.5-25.6,3.3-40.6Z"/>
          <g>
            <path class="cls-9" d="M270.7,131.8c-19.4,3.8-47.4-9.5-59.5-12.6-1.1-.3-2.3-.4-3.4-.4-6.7,0-13,4.4-14.8,5.8l-10.4,6.7,6.2,10.7c1.2,2.5,5.8,11.2,13.7,13.1,1.1.3,2.3.4,3.5.4h0c1.3,0,2.6-.2,3.8-.4h0s0,0,0,0c1.1-.3,2.3-.6,3.3-1,8.8-2.9,20.5-7.9,27.8,1.5-20.7,7.6-47.6,9.6-62.9,6.4,14.7,3.8,25.8,9.1,66.7,1,0,0,42.5-8.9,42.5-14.1s-16.3-17.1-16.3-17.1Z"/>
            <g class="cls-12">
              <path class="cls-11" d="M270.7,131.8c-19.4,3.8-47.4-9.5-59.5-12.6-1.1-.3-2.3-.4-3.4-.4-6.7,0-13,4.4-14.8,5.8l-10.4,6.7,6.2,10.7c1.2,2.5,5.8,11.2,13.7,13.1,1.1.3,2.3.4,3.5.4h0c1.3,0,2.6-.2,3.8-.4h0s0,0,0,0c1.1-.3,2.3-.6,3.3-1,8.8-2.9,20.5-7.9,27.8,1.5-20.7,7.6-47.6,9.6-62.9,6.4,14.7,3.8,25.8,9.1,66.7,1,0,0,42.5-8.9,42.5-14.1s-16.3-17.1-16.3-17.1Z"/>
            </g>
          </g>
          <g id="OEIL">
            <path class="cls-7" d="M221,140.7l-2.8-4.8s-3.6-8.1-8.8-9.4-12.2,4.3-12.2,4.3l-4.7,3,2.8,4.8s3.6,8,8.9,9.3c5.2,1.3,12.2-4.1,12.2-4.1l4.7-3Z"/>
            <g>
              <path class="cls-8" d="M206.8,147c-.8,0-1.6,0-2.3-.3-2.5-.6-4.7-2.2-6.1-4.4-1.4-2.2-1.8-4.9-1.1-7.4,1.1-4.4,5-7.5,9.5-7.5s1.6,0,2.3.3c5.3,1.3,8.5,6.6,7.2,11.9-1.1,4.4-5,7.5-9.5,7.5Z"/>
              <path class="cls-4" d="M206.8,147c-.8,0-1.6,0-2.3-.3-2.5-.6-4.7-2.2-6.1-4.4-1.4-2.2-1.8-4.9-1.1-7.4,1.1-4.4,5-7.5,9.5-7.5s1.6,0,2.3.3c5.3,1.3,8.5,6.6,7.2,11.9-1.1,4.4-5,7.5-9.5,7.5Z"/>
              <path class="cls-8" d="M206.8,128.1h0c.7,0,1.5,0,2.2.3,4.9,1.2,7.8,6.1,6.7,11-1,4.1-4.6,6.9-8.8,6.9s-1.5,0-2.2-.3c-2.4-.6-4.3-2-5.6-4.1s-1.6-4.5-1.1-6.9c1-4.1,4.6-6.9,8.8-6.9M206.8,126.6c-4.8,0-9.1,3.2-10.3,8.1-1.4,5.7,2.1,11.4,7.8,12.8.8.2,1.7.3,2.5.3,4.8,0,9.1-3.2,10.3-8.1,1.4-5.7-2.1-11.4-7.8-12.8-.8-.2-1.7-.3-2.5-.3h0Z"/>
              <path class="cls-6" d="M206.8,126.6c.8,0,1.7,0,2.5.3,5.7,1.4,9.1,7.1,7.8,12.8-1.2,4.8-5.5,8.1-10.3,8.1s-1.7,0-2.5-.3c-5.7-1.4-9.1-7.1-7.8-12.8,1.2-4.8,5.5-8.1,10.3-8.1M206.8,125.6h0c-5.3,0-10,3.6-11.2,8.8-.7,3-.3,6.1,1.3,8.8s4.1,4.5,7.1,5.2c.9.2,1.8.3,2.8.3,5.3,0,10-3.6,11.2-8.8,1.5-6.2-2.3-12.5-8.5-14-.9-.2-1.8-.3-2.8-.3h0Z"/>
            </g>
            <path class="cls-6" d="M205.4,142.6c-3-.7-4.8-3.8-4.1-6.8s3.8-4.8,6.8-4.1,4.8,3.8,4.1,6.8c-.7,3-3.8,4.8-6.8,4.1Z"/>
          </g>
          <path class="cls-5" d="M184.9,120.6s-42.5-31.5-99.4,13.9l18.5-5.2s-30.9,15.5-37.6,27.3c25.4-16.9,30.1-15.9,30.1-15.9-24,17.2-55.4,50.5-74.3,85.4,0,0,44.6-57.6,72.9-73.5-13.1,11.4-62.4,58.8-74,102.7,32.3-51.9,56-80.8,78.3-96.8-4.8,6.1-10.3,13.7-14.2,21.2,14.8-18.2,31.4-29.4,42.3-35.4,6.2-1.9,12.6-3.2,19.2-4.1,21.1-2.7,38.2-19.6,38.2-19.6Z"/>
          <path class="cls-5" d="M267.3,192.8c-19.6.9-63,.8-77.7,12.3-16.9,13.3-23,36.9-20.2,57.6,2.3,14.2,7.5,21.5,20.7,27.2,37.2,16.6,104.8-8,128.6,31.7,18.7,32.6,12.8,72.5,5.1,107.3,3.1-26.6,5.6-53.8-.9-79.8-2.2-8.5-5.5-16.5-10.2-23.8-14.5-22.4-47.5-18.9-71.2-19.5-22.8-.3-48.6,0-67.4-15.3-4.1-3.2-7.1-7.7-9.1-12.4-10.2-25.7-1.9-61.4,21.1-77.6,17.6-12.1,59.8-8.9,81.2-7.5h0Z"/>
        </g>
      </g>
    </g>
  </g>
</svg>