<?xml version="1.0" encoding="UTF-8"?>
<svg xmlns="http://www.w3.org/2000/svg" xmlns:xlink="http://www.w3.org/1999/xlink" version="1.1" viewBox="0 0 500 500">
  <defs>
    <style>
      .cls-1, .cls-2, .cls-3 {
        fill: none;
      }

      .cls-4, .cls-5 {
        stroke: #5bc4eb;
      }

      .cls-4, .cls-6 {
        fill: #e8f5f8;
      }

      .cls-7 {
        fill: #e62b27;
      }

      .cls-8, .cls-5 {
        fill: #3822a9;
      }

      .cls-9 {
        fill: #f9f199;
      }

      .cls-10 {
        clip-path: url(#clippath-1);
      }

      .cls-11 {
        clip-path: url(#clippath-2);
      }

      .cls-12 {
        fill: #e5077e;
      }

      .cls-13 {
        fill: #51368c;
      }

      .cls-2 {
        stroke: #e62b27;
      }

      .cls-2, .cls-14 {
        stroke-miterlimit: 10;
      }

      .cls-15, .cls-14 {
        fill: #f5f5f5;
      }

      .cls-3 {
        stroke-linecap: round;
      }

      .cls-3, .cls-14 {
        stroke: #3822a9;
      }

      .cls-16 {
        fill: #5bc4eb;
      }

      .cls-17 {
        clip-path: url(#clippath);
      }
    </style>
    <clipPath id="clippath">
      <rect class="cls-1" width="500" height="500"/>
    </clipPath>
    <clipPath id="clippath-1">
      <path class="cls-1" d="M310.5,155c0,37.9,14.1,59.3,14.1,59.3-6.5,1.5-13.3,2.3-20.2,2.3-46.8,0-84.1-36.1-84.8-80.7-.6-37,41-63.1,47.1-68,10.4-8.2,37.1-2.6,41.1,3.3,4.1,5.9,2.7,53.9,2.7,83.8Z"/>
    </clipPath>
    <clipPath id="clippath-2">
      <path class="cls-1" d="M425.9,483.7c-1.1-88.7-48.8-64.7-73.8-126.4-26,38-69.7,63-119.3,63s-103.4-31.2-127.6-76.9c-22.9,43-83.4,42.2-91.4,125.7-8.1,84.7-17.2,176.8-17.2,176.8l435.5-9.2-6.3-153.1Z"/>
    </clipPath>
  </defs>
  <!-- Generator: Adobe Illustrator 28.7.1, SVG Export Plug-In . SVG Version: 1.2.0 Build 142)  -->
  <g>
    <g id="perroquet">
      <g class="cls-17">
        <rect class="cls-9" width="500" height="500"/>
        <path id="corps" class="cls-7" d="M433.5,638.7l-9.2-153.1c-1.3-106.9-66-50.1-83.1-176.8-7.3-53.9-2.6-112.2-2.6-112.2,0,0-10.8-35.7-2.6-67.3,6.7-25.8,32.1-46.6,35.6-62,7.9-34.3-25.1-43.6-40.9-38.3-15.8,5.3-101.6,17.2-142.5,100.3-40.9,83.1-65.9,140.5-73.9,192.7-10.6,68.6-89.7,52.8-99,149.1C7,555.8-2,648-2,648l435.5-9.2Z"/>
        <path class="cls-13" d="M350.8,183.2c-21,0-13.3-49.9,9.6-86.9l-48.3,8.5c.7,43.5,17.7,78.4,38.7,78.4Z"/>
        <path class="cls-8" d="M358.2,64c-22.3,0-41.2,19-47.8,45.3,4.4-1.4,9.1-2.2,13.9-2.2,30,0,54.3,29.5,54.3,65.9s-.8,12.5-2.1,18.3c18.8-9.6,32.1-33.5,32.1-61.4s-22.5-65.9-50.3-65.9Z"/>
        <path class="cls-15" d="M310.5,155c0,37.9,14.1,59.3,14.1,59.3-6.5,1.5-13.3,2.3-20.2,2.3-46.8,0-85.2-36.1-84.8-80.7.3-32.6,38.1-62,47.1-68,9-5.9,37.1-2.6,41.1,3.3,4.1,5.9,2.7,53.9,2.7,83.8Z"/>
        <g id="lignes_rouges">
          <g class="cls-10">
            <g>
              <ellipse class="cls-2" cx="274.5" cy="105.5" rx="27.3" ry="22.8" transform="translate(64.2 311.1) rotate(-65.4)"/>
              <ellipse class="cls-2" cx="269.2" cy="105.5" rx="40.5" ry="34.9" transform="translate(61.2 306.2) rotate(-65.4)"/>
              <ellipse class="cls-2" cx="267" cy="107.6" rx="62.5" ry="42.6" transform="translate(57.9 305.5) rotate(-65.4)"/>
              <ellipse class="cls-2" cx="266.6" cy="122.2" rx="76" ry="48.3" transform="translate(44.4 313.6) rotate(-65.4)"/>
              <ellipse class="cls-2" cx="261.8" cy="128.9" rx="104.4" ry="66.3" transform="translate(35.5 313.1) rotate(-65.4)"/>
            </g>
          </g>
        </g>
        <path id="langue" class="cls-12" d="M363.6,146.9c-.2-4.3-35.9-9.3-53.6-11.4,0,7.5,2,15,4.6,22.4,18.5-2.4,49.2-7,49-11Z"/>
        <path class="cls-8" d="M309.8,216.5c23.3-1.3,44.1-11.6,58.6-27.3,1.3-1.4,2.4-2.8,3.4-4.3,9.2-13.5,2.9-15.9-7.3-7-1.5,1.3-3.1,2.4-4.8,3.2-2.9,1.4-5.8,2.1-8.9,2.1-21,0-38.1-34.9-38.7-78.4-10.1,16.2-16.1,36.2-16.1,57.8s5.1,38.4,13.8,53.9Z"/>
        <path class="cls-14" d="M281.6,114.6c-4.3,4.2-11.2,4.1-15.4-.2-4.2-4.3-2.6-18-2.6-18,2.6-2,13.9-1.5,18.1,2.7,4.2,4.3,4.1,11.2-.2,15.4Z"/>
        <ellipse class="cls-8" cx="274.2" cy="107" rx="5.4" ry="5.6"/>
        <path class="cls-3" d="M194.2,241.5c-.4-.2.2,15.4,12.3,5.5-2.1,19.8,10.3,31.8,26.7,5.9,3.5,23.6,19,7.9,20.5-.7,12.7,21.2,27.6,7.4,29-8.9"/>
        <path class="cls-3" d="M254.2,356.6c-5.2,19.1,6.3,32.9,24.5,8.4-1.4,22,4.7,24.7,9.4,20.3,5-4.3,8.8-15.6,9.9-19.6,11.1,21.9,26.7,8.5,27.5-7.6"/>
        <path class="cls-3" d="M147.2,304.4c-.4-.2.2,15.4,12.3,5.5-2.1,19.8,10.3,31.8,26.7,5.9,3.5,23.6,19,7.9,20.5-.7,12.7,21.2,27.6,7.4,29-8.9"/>
        <g class="cls-11">
          <g id="veste">
            <path class="cls-3" d="M247.4,476.8c-.4-.2.2,15.4,12.3,5.5-2.1,19.8,10.3,31.8,26.7,5.9,3.5,23.6,19,7.9,20.5-.7,12.7,21.2,27.6,7.4,29-8.9"/>
            <path class="cls-8" d="M432.4,482.8c-1.1-88.7-55.3-63.9-80.3-125.5-26,38-69.7,63-119.3,63s-103.4-31.2-127.6-76.9c-22.9,43-83.4,42.2-91.4,125.7-8.1,84.7-17.2,176.8-17.2,176.8l435.5-9.2.2-154Z"/>
            <path class="cls-6" d="M318.5,500.8l26.2-131.1c-26.5,33-67.1,54.2-112.7,54.2s-103.4-31.2-127.6-76.9c-.3.6-.7,1.2-1.1,1.9l30.4,151.9.5-.3,33.2,145.5,118-2.5,32.6-143,.5.3Z"/>
            <path class="cls-8" d="M244.9,471.6s15.2,65.5,14.5,85.8c-.7,20.3-40.1,176.5-40.1,176.5,0,0-28.6-159.7-30.4-176.4-1.8-16.6,21.2-83,21.2-83l17.3-30.4,17.4,27.5Z"/>
            <path class="cls-12" d="M210.1,474.4c10.7-4.7,22.2-6,34.8-2.9,8.1-16.8,12.5-34.5,12.5-53.3l-58.8,4c.3,16.4,4.1,33.8,11.6,52.3Z"/>
            <path class="cls-12" d="M244.9,471.6s15.2,65.5,14.5,85.8c-.7,20.3-40.1,176.5-40.1,176.5,0,0-28.6-159.7-30.4-176.4-1.8-16.6,21.2-83,21.2-83l19.1-1.6,15.7-1.3Z"/>
            <polygon class="cls-4" points="226.3 421 183.7 437.4 153.7 490.1 98.6 333.2 224.1 403 226.3 421"/>
            <polygon class="cls-4" points="221.4 420.3 271.9 439.3 301.8 492.1 352.8 348.7 231.4 405 221.4 420.3"/>
            <g>
              <path class="cls-5" d="M70.6,363.8c18,35.9-12.3,130.2-12.3,130.2,0,0,75.5,43,87.1,57.2l-43.1-215.6-31.7,28.2Z"/>
              <g>
                <path class="cls-8" d="M193.7,756.2c-50.1-57.6-112-131.5-149.6-194.7l90.6-63.7,59,258.5Z"/>
                <path class="cls-16" d="M134.4,498.5l58.4,255.8c-49.8-57.3-110.8-130.2-148-192.8l89.7-63.1M135,496.8l-91.6,64.4c34.5,58.2,89.6,125.9,151.2,196.7l-59.6-261.2h0Z"/>
              </g>
            </g>
            <g>
              <path class="cls-5" d="M383.4,363.8c-18,35.9,12.3,130.2,12.3,130.2,0,0-75.5,43-87.1,57.2l43.1-215.6,31.7,28.2Z"/>
              <g>
                <path class="cls-8" d="M319.2,497.7l90.6,63.7c-37.6,63.3-99.5,137.1-149.6,194.7l59-258.5Z"/>
                <path class="cls-16" d="M319.6,498.5l89.7,63.1c-16.1,27.1-37.4,57.5-64.9,92.7-22.7,29.1-49.2,61-83.1,100l58.4-255.8M318.9,496.8l-59.6,261.2c61.6-70.8,116.7-138.5,151.2-196.7l-91.6-64.4h0Z"/>
              </g>
            </g>
          </g>
        </g>
      </g>
    </g>
  </g>
</svg>