<?xml version="1.0" encoding="UTF-8"?>
<svg xmlns="http://www.w3.org/2000/svg" xmlns:xlink="http://www.w3.org/1999/xlink" version="1.1" viewBox="0 0 500 500">
  <defs>
    <style>
      .cls-1, .cls-2 {
        fill: none;
      }

      .cls-3 {
        fill: #e62b27;
        opacity: .5;
      }

      .cls-4 {
        fill: #3822a9;
      }

      .cls-5 {
        fill: #f9f199;
      }

      .cls-6 {
        clip-path: url(#clippath-1);
      }

      .cls-7 {
        clip-path: url(#clippath-2);
      }

      .cls-8 {
        fill: #e5077e;
      }

      .cls-2 {
        stroke-linecap: round;
        stroke-width: 96px;
      }

      .cls-2, .cls-9 {
        stroke: #3822a9;
        stroke-miterlimit: 10;
      }

      .cls-10 {
        fill: #1d1d1b;
        fill-opacity: .6;
      }

      .cls-11 {
        fill: #f5f5f5;
      }

      .cls-12 {
        fill: #5136e1;
      }

      .cls-13 {
        fill: #5bc4eb;
      }

      .cls-14 {
        clip-path: url(#clippath);
      }

      .cls-9 {
        fill: #e8f5f8;
      }
    </style>
    <clipPath id="clippath">
      <rect class="cls-1" x="-.4" y=".7" width="500" height="500"/>
    </clipPath>
    <clipPath id="clippath-1">
      <path class="cls-1" d="M296,381.6c61.5-103.3,15.9-192.9-6.6-226.6-8.1-12.2-14.8-19.6-16-20.9h0c-9.4-9.7-22-14.5-34.6-14.2-10.9.3-21.8,4.4-30.4,12.4-18.8,17.4-19.8,46.8-2.4,65.5h0c1.2,1.5,3.5,4.4,6.3,8.6,19.3,29,35.7,74.6,4.1,127.7-74.6,125.3-71.6,226.4,9.5,318.2,9.2,10.4,21.9,15.7,34.8,15.7,10.9,0,21.9-3.8,30.7-11.6,19.2-17,21-46.3,4.1-65.5-35.8-40.6-68.3-93.6.7-209.4Z"/>
    </clipPath>
    <clipPath id="clippath-2">
      <path class="cls-1" d="M294.2,198.5c-1-12.5,2.3-30.2-15.3-42.4-10.4-7.2-18.2-9.6-29.9-10.6v45c.8-.1,1.7-.2,2.5-.2,10.8,0,19.5,8.8,19.5,19.5s-6.4,17-15.1,19c6.9,7.2,11.2,17,11.2,27.8s-2.6,16.2-7,22.6c1,0,1.9.1,2.9.1,25.7,0,46.5-20.8,46.5-46.5s-6-26-15.4-34.5Z"/>
    </clipPath>
  </defs>
  <!-- Generator: Adobe Illustrator 28.7.1, SVG Export Plug-In . SVG Version: 1.2.0 Build 142)  -->
  <g>
    <g id="crowed">
      <g class="cls-14">
        <g id="fond">
          <rect class="cls-13" x="-.4" y=".7" width="500" height="500"/>
        </g>
        <g id="crowed-2" data-name="crowed">
          <path id="cou" class="cls-2" d="M260.7,621.5c-57.8-65.4-77.4-141.2-4.4-263.8,47.3-79.4,14.1-147.9-5.4-177.2-6.5-9.8-11.5-15.2-11.5-15.2"/>
          <g id="couronne">
            <g>
              <path class="cls-5" d="M227.5,186.4l2-160.2,2,160.2c0,2.6-4,2.7-4,0h0Z"/>
              <path class="cls-5" d="M227.5,186.6l-15.5-157.7,19.5,157.2c.3,2.6-3.6,3.1-4,.4h0Z"/>
              <path class="cls-5" d="M227.6,186.8l-32.4-153.5s36.4,152.6,36.4,152.6c.6,2.6-3.3,3.5-3.9.9h0Z"/>
              <path class="cls-5" d="M227.6,187l-48.7-147.7,52.4,146.4c.8,2.5-2.9,3.8-3.8,1.3h0Z"/>
              <path class="cls-5" d="M227.7,187.2s-64-140.6-64-140.6l67.6,138.9c1.1,2.4-2.4,4.1-3.6,1.7h0Z"/>
              <path class="cls-5" d="M227.8,187.4L149.5,55.3l81.8,130.1c1.4,2.3-2,4.4-3.4,2.1h0Z"/>
              <path class="cls-5" d="M227.9,187.6l-91.6-122.5,94.8,120.1c1.6,2.1-1.5,4.5-3.2,2.4h0Z"/>
              <path class="cls-5" d="M228.1,187.8l-103.7-111.8,106.6,109.1c1.8,1.9-1,4.7-2.9,2.8h0Z"/>
              <path class="cls-5" d="M228.2,187.9l-114.6-100.2,117.2,97.1c2,1.7-.5,4.8-2.6,3h0Z"/>
              <path class="cls-5" d="M228.4,188l-124.1-87.7,126.4,84.4c2.2,1.5,0,4.8-2.3,3.3h0Z"/>
              <path class="cls-5" d="M228.6,188.1L96.2,113.6l134.2,71c2.3,1.3.5,4.8-1.9,3.5h0Z"/>
              <path class="cls-5" d="M228.7,188.2l-139.1-60.7,140.7,57c2.4,1.1.9,4.7-1.6,3.7h0Z"/>
              <path class="cls-5" d="M228.9,188.3l-144.5-46.5,145.7,42.7c2.5.8,1.4,4.6-1.2,3.8h0Z"/>
              <path class="cls-5" d="M229.1,188.3l-148.4-31.9,149.2,27.9c2.6.6,1.9,4.4-.8,3.9h0Z"/>
              <path class="cls-5" d="M229.3,188.4s-150.8-17-150.8-17l151.2,13c2.6.3,2.3,4.2-.4,4h0Z"/>
              <path class="cls-5" d="M229.5,188.4l-151.7-2s151.7-2,151.7-2c2.7,0,2.7,4,0,4h0Z"/>
              <path class="cls-5" d="M229.7,188.4l-151.2,13,150.8-17c2.6-.2,3.1,3.7.4,4h0Z"/>
              <path class="cls-5" d="M229.9,188.3l-149.2,27.9,148.4-31.9c2.6-.5,3.4,3.4.8,3.9h0Z"/>
              <path class="cls-5" d="M230.1,188.3l-145.7,42.7,144.5-46.5c2.5-.8,3.7,3,1.2,3.8h0Z"/>
              <path class="cls-5" d="M230.3,188.2l-140.7,57,139.1-60.7c2.5-1,4,2.6,1.6,3.7h0Z"/>
              <path class="cls-5" d="M230.5,188.1l-134.2,71,132.3-74.5c2.3-1.2,4.3,2.2,1.9,3.5h0Z"/>
              <path class="cls-5" d="M230.6,188l-126.4,84.4,124.1-87.7c2.2-1.5,4.5,1.7,2.3,3.3h0Z"/>
              <path class="cls-5" d="M230.8,187.9l-117.2,97.1,114.6-100.2c2-1.7,4.6,1.3,2.6,3h0Z"/>
              <path class="cls-5" d="M231,187.8l-106.6,109.1,103.7-111.8c1.8-1.9,4.7.8,2.9,2.8h0Z"/>
              <path class="cls-5" d="M231.1,187.6l-94.8,120.1,91.6-122.5c1.6-2.1,4.8.3,3.2,2.4h0Z"/>
              <path class="cls-5" d="M231,185l121.6,130.5-124.5-127.8c-1.8-1.9,1-4.7,2.9-2.8h0Z"/>
              <path class="cls-5" d="M230.8,184.9l136.6,118.9-139.2-115.9c-2-1.7.5-4.8,2.6-3h0Z"/>
              <path class="cls-5" d="M230.6,184.7l150.3,105.7s-152.5-102.4-152.5-102.4c-2.2-1.5,0-4.8,2.3-3.3h0Z"/>
              <path class="cls-5" d="M230.5,184.6s162.3,90.9,162.3,90.9l-164.2-87.4c-2.3-1.3-.5-4.8,1.9-3.5h0Z"/>
              <path class="cls-5" d="M230.3,184.5l172.5,74.8-174.1-71.1c-2.4-1.1-.9-4.7,1.6-3.7h0Z"/>
              <path class="cls-5" d="M230.1,184.5l180.7,57.6-181.9-53.8c-2.5-.8-1.4-4.6,1.2-3.8h0Z"/>
              <path class="cls-5" d="M229.9,184.4l186.7,39.6-187.5-35.6c-2.6-.6-1.9-4.4.8-3.9h0Z"/>
              <path class="cls-5" d="M229.7,184.4l190.5,20.9-190.9-17c-2.6-.3-2.3-4.2.4-4h0Z"/>
              <path class="cls-5" d="M229.5,184.4l191.9,2-191.9,2c-2.6,0-2.7-4,0-4h0Z"/>
              <path class="cls-5" d="M229.3,184.4l190.9-17-190.5,20.9c-2.6.2-3.1-3.7-.4-4h0Z"/>
              <path class="cls-5" d="M229.1,184.4l187.5-35.6s-186.7,39.6-186.7,39.6c-2.6.5-3.4-3.3-.8-3.9h0Z"/>
              <path class="cls-5" d="M228.9,184.5l181.9-53.8-180.7,57.6c-2.5.7-3.7-3-1.2-3.8h0Z"/>
              <path class="cls-5" d="M228.7,184.5l174.1-71.1-172.5,74.8c-2.4,1-4-2.6-1.6-3.7h0Z"/>
              <path class="cls-5" d="M228.6,184.6l164.2-87.4-162.3,90.9c-2.3,1.2-4.3-2.2-1.9-3.5h0Z"/>
              <path class="cls-5" d="M228.4,184.7l152.5-102.4s-150.3,105.7-150.3,105.7c-2.2,1.5-4.5-1.7-2.3-3.3h0Z"/>
              <path class="cls-5" d="M228.2,184.9l139.2-115.9-136.6,118.9c-2,1.7-4.6-1.3-2.6-3h0Z"/>
              <path class="cls-5" d="M228.1,185l124.5-127.8s-121.6,130.5-121.6,130.5c-1.8,1.9-4.7-.8-2.9-2.8h0Z"/>
              <path class="cls-5" d="M227.9,185.2s108.5-138,108.5-138-105.4,140.4-105.4,140.4c-1.6,2.1-4.8-.3-3.2-2.4h0Z"/>
              <path class="cls-5" d="M227.8,185.3l91.7-146.3-88.3,148.4c-1.4,2.2-4.8.2-3.4-2.1h0Z"/>
              <path class="cls-5" d="M227.7,185.5l74.2-152.8s-70.6,154.5-70.6,154.5c-1.2,2.4-4.7.7-3.6-1.7h0Z"/>
              <path class="cls-5" d="M227.6,185.7l56.2-157.4-52.4,158.7c-.9,2.5-4.6,1.3-3.8-1.3h0Z"/>
              <path class="cls-5" d="M227.6,186l38.1-160.2-34.2,161.1c-.6,2.6-4.5,1.8-3.9-.9h0Z"/>
              <path class="cls-5" d="M227.5,186.2l19.9-161.1-15.9,161.5c-.3,2.6-4.2,2.2-4-.4h0Z"/>
            </g>
            <g>
              <path class="cls-11" d="M227.5,186.5l-6.8-159.2,10.8,158.9c.1,2.6-3.8,2.9-4,.2h0Z"/>
              <path class="cls-11" d="M227.5,186.7l-24.1-155.8s28,155.1,28,155.1c.4,2.6-3.5,3.3-3.9.7h0Z"/>
              <path class="cls-11" d="M227.6,186.9l-40.7-150.8,44.5,149.7c.7,2.6-3.1,3.7-3.8,1.1h0Z"/>
              <path class="cls-11" d="M227.7,187.1l-56.4-144.3s60.1,142.8,60.1,142.8c1,2.5-2.7,4-3.7,1.5h0Z"/>
              <path class="cls-11" d="M227.8,187.3L156.5,50.8l74.8,134.6c1.2,2.3-2.2,4.2-3.5,1.9h0Z"/>
              <path class="cls-11" d="M227.9,187.5l-85.1-127.5s88.4,125.2,88.4,125.2c1.5,2.2-1.7,4.5-3.3,2.3h0Z"/>
              <path class="cls-11" d="M228,187.7l-97.8-117.3,100.9,114.7c1.7,2-1.3,4.6-3,2.6h0Z"/>
              <path class="cls-11" d="M228.1,187.8l-109.3-106.1,112.1,103.2c1.9,1.8-.8,4.7-2.7,2.9h0Z"/>
              <path class="cls-11" d="M228.3,188l-119.5-94,122,90.9c2.1,1.6-.3,4.8-2.4,3.2h0Z"/>
              <path class="cls-11" d="M228.5,188.1L100.1,106.9l130.5,77.8c2.2,1.4.2,4.8-2.1,3.4h0Z"/>
              <path class="cls-11" d="M228.6,188.2L92.7,120.5l137.6,64.1c2.4,1.2.7,4.7-1.7,3.6h0Z"/>
              <path class="cls-11" d="M228.8,188.3l-142-53.7,143.3,49.9c2.5.9,1.2,4.6-1.4,3.8h0Z"/>
              <path class="cls-11" d="M229,188.3s-146.6-39.2-146.6-39.2,147.6,35.3,147.6,35.3c2.6.7,1.6,4.5-1,3.9h0Z"/>
              <path class="cls-11" d="M229.2,188.4l-149.8-24.5,150.4,20.5c2.6.4,2.1,4.3-.6,4h0Z"/>
              <path class="cls-11" d="M229.4,188.4l-151.5-9.5s151.7,5.5,151.7,5.5c2.6.2,2.5,4.1-.2,4h0Z"/>
              <path class="cls-11" d="M229.6,188.4l-151.7,5.5,151.5-9.5c2.7-.1,2.9,3.8.2,4h0Z"/>
              <path class="cls-11" d="M229.8,188.4l-150.4,20.5,149.8-24.5c2.6-.4,3.2,3.5.6,4h0Z"/>
              <path class="cls-11" d="M230,188.3l-147.6,35.3,146.6-39.2c2.6-.6,3.6,3.2,1,3.9h0Z"/>
              <path class="cls-11" d="M230.2,188.3l-143.3,49.9s142-53.7,142-53.7c2.5-.9,3.9,2.8,1.4,3.8h0Z"/>
              <path class="cls-11" d="M230.4,188.2l-137.6,64.1,135.9-67.7c2.4-1.1,4.1,2.4,1.7,3.6h0Z"/>
              <path class="cls-11" d="M230.6,188.1l-130.5,77.8,128.4-81.2c2.3-1.4,4.4,2,2.1,3.4h0Z"/>
              <path class="cls-11" d="M230.7,188l-122,90.9,119.5-94c2.1-1.6,4.5,1.5,2.4,3.2h0Z"/>
              <path class="cls-11" d="M230.9,187.8l-112.1,103.2,109.3-106.1c1.9-1.8,4.7,1.1,2.7,2.9h0Z"/>
              <path class="cls-11" d="M231,187.7l-100.9,114.7s97.8-117.3,97.8-117.3c1.7-2,4.8.5,3,2.6h0Z"/>
              <path class="cls-11" d="M230.9,184.9l129.2,125-132-122c-1.9-1.8.8-4.7,2.7-2.9h0Z"/>
              <path class="cls-11" d="M230.7,184.8l143.6,112.5-146.1-109.3c-2.1-1.6.3-4.8,2.4-3.2h0Z"/>
              <path class="cls-11" d="M230.6,184.7l156.5,98.4s-158.6-95-158.6-95c-2.2-1.4-.2-4.8,2.1-3.4h0Z"/>
              <path class="cls-11" d="M230.4,184.6l167.7,83-169.4-79.4c-2.4-1.2-.7-4.7,1.7-3.6h0Z"/>
              <path class="cls-11" d="M230.2,184.5l176.9,66.3-178.2-62.6c-2.5-.9-1.2-4.6,1.4-3.8h0Z"/>
              <path class="cls-11" d="M230,184.5l184,48.7-185-44.8c-2.5-.7-1.6-4.5,1-3.9h0Z"/>
              <path class="cls-11" d="M229.8,184.4l188.9,30.3-189.5-26.4c-2.6-.4-2.1-4.3.6-4h0Z"/>
              <path class="cls-11" d="M229.6,184.4l191.5,11.5-191.7-7.5c-2.6-.2-2.5-4.1.2-4h0Z"/>
              <path class="cls-11" d="M229.4,184.4l191.7-7.5-191.5,11.5c-2.6,0-2.9-3.8-.2-4h0Z"/>
              <path class="cls-11" d="M229.2,184.4l189.5-26.4-188.9,30.3c-2.6.4-3.2-3.5-.6-4h0Z"/>
              <path class="cls-11" d="M229,184.5l185-44.8-184,48.7c-2.6.6-3.6-3.2-1-3.9h0Z"/>
              <path class="cls-11" d="M228.8,184.5l178.2-62.6-176.9,66.3c-2.5.9-3.9-2.8-1.4-3.8h0Z"/>
              <path class="cls-11" d="M228.6,184.6s169.4-79.4,169.4-79.4l-167.7,83c-2.4,1.1-4.1-2.4-1.7-3.6h0Z"/>
              <path class="cls-11" d="M228.5,184.7l158.6-95-156.5,98.4c-2.3,1.4-4.4-2-2.1-3.4h0Z"/>
              <path class="cls-11" d="M228.3,184.8l146.1-109.3s-143.6,112.5-143.6,112.5c-2.1,1.6-4.5-1.5-2.4-3.2h0Z"/>
              <path class="cls-11" d="M228.1,184.9l132-122s-129.2,125-129.2,125c-1.9,1.8-4.7-1.1-2.7-2.9h0Z"/>
              <path class="cls-11" d="M228,185.1l116.6-133.1-113.6,135.7c-1.7,2-4.8-.6-3-2.6h0Z"/>
              <path class="cls-11" d="M227.9,185.3l100.2-142.4s-96.9,144.6-96.9,144.6c-1.5,2.2-4.8,0-3.3-2.3h0Z"/>
              <path class="cls-11" d="M227.8,185.4l83-149.8-79.5,151.7c-1.3,2.3-4.8.5-3.5-1.9h0Z"/>
              <path class="cls-11" d="M227.7,185.6L292.9,30.3s-61.5,156.9-61.5,156.9c-1,2.4-4.7,1-3.7-1.5h0Z"/>
              <path class="cls-11" d="M227.6,185.8l47.2-159.1-43.3,160.1c-.8,2.5-4.5,1.5-3.8-1.1h0Z"/>
              <path class="cls-11" d="M227.5,186.1l29-160.9-25,161.5c-.5,2.6-4.3,2-3.9-.7h0Z"/>
              <path class="cls-11" d="M227.5,186.3l10.9-160.9-6.9,161.1c-.2,2.6-4.1,2.5-4-.2h0Z"/>
            </g>
          </g>
          <g class="cls-6">
            <ellipse class="cls-10" cx="236.4" cy="192.4" rx="77.9" ry="171.2" transform="translate(-48.8 84.7) rotate(-18.4)"/>
          </g>
          <g id="tete">
            <path class="cls-12" d="M294.2,198.5c-1-12.5,2.3-30.2-15.3-42.4-17.8-12.3-28.2-10.7-63.5-11.5-35.3-.8-26.3,69.9-26.3,69.9,0,0,4.1,25.5-9,42.7-13.1,17.3-37,55.1-37,94.5,15.6-9.9,37.8-37.8,37.8-37.8-3.3,29.6,0,59.2,0,59.2,11.5-22.2,74.8-91.2,74.8-91.2,0,0,1.3-.8,3.5-2.5,1.3.1,2.6.2,4,.2,25.7,0,46.5-20.8,46.5-46.5s-6-26-15.4-34.5Z"/>
          </g>
          <path class="cls-10" d="M163.6,305.1c1.2-4.2,3.2-8.5,5.8-12.9,8.7-14.2,21.6-22.2,28.7-17.8,3.5,2.1,5,6.8,4.6,12.7,13-17.4,20.6-39,20.6-62.3s-1.6-20.8-4.5-30.4l-25-1.9s-5.9.8-7.1,32.3c-1.2,32.1-30.5,56.4-30.5,67.2,0,4.4-1.2,18.2,7.4,13.1h0Z"/>
          <path class="cls-12" d="M163.6,300.2c1.2-4.2,3.2-8.5,5.8-12.9,8.7-14.2,21.6-22.2,28.7-17.8,3.5,2.1,5,6.8,4.6,12.7,13-17.4,20.6-39,20.6-62.3s-1.6-20.8-4.5-30.4l-25-1.9s-5.9.8-7.1,32.3c-1.2,32.1-30.5,56.4-30.5,67.2,0,4.4-1.2,18.2,7.4,13.1h0Z"/>
          <path class="cls-10" d="M183.1,289.6c-4.6-2-11.6,3.8-15.4,13l8.4,3.6,7-16.6Z"/>
          <g id="rouge">
            <path class="cls-8" d="M294.2,198.5c-1-12.5,2.3-30.2-15.3-42.4-10.4-7.2-18.2-9.6-29.9-10.6v45c.8-.1,1.7-.2,2.5-.2,10.8,0,19.5,8.8,19.5,19.5s-6.4,17-15.1,19c6.9,7.2,11.2,17,11.2,27.8s-2.6,16.2-7,22.6c1,0,1.9.1,2.9.1,25.7,0,46.5-20.8,46.5-46.5s-6-26-15.4-34.5Z"/>
            <g class="cls-7">
              <circle class="cls-11" cx="273.7" cy="179.6" r="27.7"/>
            </g>
          </g>
          <g id="oeil">
            <circle class="cls-9" cx="251.6" cy="209.8" r="15.1"/>
            <circle class="cls-4" cx="251.6" cy="209.8" r="6.9"/>
            <circle class="cls-11" cx="254.8" cy="202.9" r="3.7"/>
          </g>
          <path class="cls-8" d="M201.4,301.3l17.7-12.9c-9,19.7-25.9,44.8-25.9,44.8,3.3-13.6,8.2-31.9,8.2-31.9Z"/>
          <path class="cls-3" d="M257.4,272.8l-2,1.5c-1.8,1.4-3,2.2-3,2.2l-.7.5-.6.6c-2.1,2.3-43.4,47.4-64.9,76.2-.4-10.8-.4-25,1.2-39.2l.5-4.8s37-28.1,46.1-32.1c9.2-4,23.3-5,23.3-5Z"/>
          <path class="cls-4" d="M247.1,200.8c15.9-31.2,13.1-64.6-6.4-74.4s-56.2,2.4-72.1,33.6c-15.9,31.2-4.9,69.6,14.6,79.4,19.4,9.9,48.1-7.4,64-38.6Z"/>
        </g>
      </g>
    </g>
  </g>
</svg>