<?xml version="1.0" encoding="UTF-8"?>
<svg xmlns="http://www.w3.org/2000/svg" xmlns:xlink="http://www.w3.org/1999/xlink" version="1.1" viewBox="0 0 500 500">
  <defs>
    <style>
      .cls-1, .cls-2, .cls-3 {
        fill: none;
      }

      .cls-4 {
        fill: #ea8c56;
      }

      .cls-5 {
        fill: #e5007e;
      }

      .cls-2 {
        stroke: #3822a9;
      }

      .cls-2, .cls-3 {
        stroke-linecap: round;
      }

      .cls-2, .cls-3, .cls-6 {
        stroke-miterlimit: 10;
      }

      .cls-2, .cls-6 {
        stroke-width: 2px;
      }

      .cls-7 {
        fill: #3822a9;
      }

      .cls-8, .cls-6 {
        fill: #fff;
      }

      .cls-3 {
        stroke: #fff;
        stroke-width: 3px;
      }

      .cls-9 {
        fill: #4fcdf3;
      }

      .cls-10 {
        clip-path: url(#clippath);
      }

      .cls-6 {
        stroke: #1d1d1b;
      }
    </style>
    <clipPath id="clippath">
      <rect id="fond" class="cls-1" x="-1" y="0" width="500" height="500"/>
    </clipPath>
  </defs>
  <!-- Generator: Adobe Illustrator 28.7.1, SVG Export Plug-In . SVG Version: 1.2.0 Build 142)  -->
  <g>
    <g id="lapin">
      <g class="cls-10">
        <rect id="fond-2" data-name="fond" class="cls-7" x="-1" y="0" width="500" height="500"/>
        <path id="oreille" class="cls-6" d="M112.6,42c17.5-2.9,46.9,43.3,51.2,87.6,2.3,24-4.3,31.9-1.1,54,4.9,34,26.8,58.9,44.4,74.5-4.5,3.7-2,5.3-10.4,6.5-37.1,5.3-89.6-50.6-102.8-104.3-12.9-52.7-.2-115.1,18.8-118.3Z"/>
        <path class="cls-8" d="M349.8,376.7c-2,0-4,0-6,.2-13.5-1.2-28.8-.4-43,0,15.3-29.5-5.2-46.8-8-49.2-15.4-12.8-22.1-31.3-23.8-37.7-4.5-16.3,1.8-31.9,9.7-47.8,27.2-54.6,50.8-65.6,69.9-102.4,21.8-41.8,26.9-96,12.5-103.5-14.8-7.7-68.7,26.4-79.1,76.7-9.8,47.5-11.3,112.7-33.9,121.7-4,1.6-8.7,2-25.2,6.9-45.1,13.6-52.7,18.6-57.4,26.2-2.6,4.1-5.5,11.2-.6,41.5,0,.5.2.9.2,1.4-9.9,10.8-23.3,16.9-36.6,16.2-12.8-.7-11,26.6-8.5,45.9-8.9,2.2-14.2,4.1-14.2,4.7-5.2,16.6,23.2,20.1,39.2,23.3,37.8,7.5,18.1,105,40.6,154.1-4.6,22.6-7.1,46.5-7.1,71.2,0,137.8,76.7,249.4,171.2,249.4s171.2-111.7,171.2-249.4-76.7-249.4-171.2-249.4Z"/>
        <g id="museau">
          <circle class="cls-5" cx="126.5" cy="376.7" r="16.3"/>
          <path class="cls-8" d="M173.5,344.2c-5.8-4.8-13.8-7.6-22.4-7.2-7.9.4-14.9,3.4-19.8,8-2.9,2.7-5.2,6-6.5,9.6-1.3-3.1-3.2-5.8-5.6-8.1-4.5-4.2-10.6-6.7-17.1-6.4-6.1.3-11.5,2.9-15.4,6.9s-6.2,9.5-6.2,15.5,2.3,11.5,6.2,15.7,9.3,7.1,15.4,7.5c6.6.5,17.1-5.8,17.1-5.8,0,0,3.8-5.1,5.9-10.5,2.4,5.5,6.2,10.8,6.2,10.8,0,0,11.9,8,19.8,8.6,8.5.6,16.5-1.9,22.4-6.5,5.8-4.6,9.6-11.3,9.6-19s-3.7-14.5-9.6-19.3Z"/>
        </g>
        <g id="oeil">
          <path class="cls-4" d="M239,282c-.2,0,8.2,26.6-5,38.5-10.6,9.4-28.3,8.5-37.6-1.9-9.3-10.4-6.9-25.4,3.4-33.8,15-12.1,38.9-2.6,39.2-2.8Z"/>
          <circle class="cls-7" cx="219.5" cy="302" r="14.8"/>
          <circle class="cls-8" cx="229.7" cy="295.1" r="5.9"/>
        </g>
        <line id="bouche" class="cls-2" x1="124.6" y1="354.3" x2="124.6" y2="368.7"/>
        <g id="oeil-2" data-name="oeil">
          <path class="cls-4" d="M153.8,318.7c-2.2-3.6-3.4-7.8-3.4-12.3,0-13.3,10.8-24,24-24s4.1.7,6,.8c5.6.4-18.2,43-26.6,35.6Z"/>
        </g>
        <path class="cls-7" d="M161.9,314.2c-.7-2-1.1-4.2-1.1-6.3,0-9.9,7.9-17.9,17.8-18.1-1.3,3-3.5,7.4-6.7,12.4-4.5,7-7.9,10.5-9.9,12Z"/>
        <path class="cls-3" d="M181.5,283c-6,25.7-27,43-48.6,42.7"/>
        <g id="truffe">
          <path class="cls-5" d="M148.6,338.8c0,9.9-10.1,18-22,18.1-11.2.1-19.8-7-19.8-15.8s8.6-16.9,19.8-18c11.9-1.1,22,5.9,22,15.7Z"/>
          <path class="cls-7" d="M124.9,356.5c2.5-6.7,7-12.7,12.9-16.9-2.5,6.7-7,12.7-12.9,16.9h0Z"/>
          <path class="cls-7" d="M116,340.6c4.5,4.1,7.5,9.8,8.3,15.8-4.5-4.1-7.5-9.8-8.3-15.8h0Z"/>
        </g>
        <path class="cls-7" d="M308.8,372.8c-11.4,15.1-30.3,22.6-48.5,24.9-9.1,1.2-18.4,1.6-27.5.4-9.1-1.2-18-4.1-25.8-8.8,8,4.4,16.9,7,25.9,7.8,9,.9,18.1,0,27.1-1.4,8.9-1.5,17.6-4.1,25.6-8.2,7.9-4.1,14.9-9.8,20-17,0,0,3.2,2.3,3.2,2.3h0Z"/>
        <path class="cls-5" d="M355.3,47.1c-8.6-5.2-53.3,27.4-61.8,68.3-2.6,12.6-4.6,26.7-6.6,40.5-4.1,28.1-15,72.1-21.8,90.4.7.2,1.5.3,2.3.4,11.9-18.1,33.4-61.9,44.2-74.9,10-12,18.6-22.4,26.5-37.5,20-38.4,25.8-82.1,17.3-87.3Z"/>
        <g>
          <path class="cls-9" d="M157.7,354.1c27.5-9.3,56.8-11.7,85.6-12.1-21.6.6-43.3,2.9-64.3,7.7-7,1.7-13.9,3.7-20.6,6.2,0,0-.7-1.9-.7-1.9h0Z"/>
          <path class="cls-9" d="M167,363c28.9-1.3,58,1.3,86.1,8.1-21.1-4.6-42.8-6.7-64.4-6.8-7.2,0-14.4.3-21.6.8v-2h-.1Z"/>
          <path class="cls-9" d="M158.3,370.8c12.6,5.3,23.9,12.9,35.2,20.4,11.2,7.6,22.1,15.6,32.8,23.9-16.4-12-33.1-23.5-50.7-33.6-5.9-3.3-11.8-6.5-18.1-8.9,0,0,.7-1.9.7-1.9h0Z"/>
        </g>
        <g>
          <path class="cls-9" d="M94.7,355.9c-27.1-9.9-56.3-12.9-84.9-13.9,21.7,0,43.4,1.9,64.7,6.2,7.1,1.5,14.1,3.4,21,5.8l-.7,1.9h0Z"/>
          <path class="cls-9" d="M86,365c-28.7-2-57.8,0-86,6.1,21.1-5.1,42.7-7.7,64.4-8.3,7.2-.2,14.5,0,21.7.3v2h-.1Z"/>
          <path class="cls-9" d="M95.5,372.6c-12.5,4.9-24,12.2-35.4,19.4-11.4,7.3-22.5,15-33.4,23.1,16.1-12.4,32.5-24.4,49.9-34.9,5.8-3.5,11.7-6.8,18.1-9.4,0,0,.7,1.9.7,1.9h0Z"/>
        </g>
        <path class="cls-7" d="M183.9,363.4c2.2,16-13.5,28.2-28.4,28.3-9.4.5-17.7-4.8-25-10-1.9-3-3.4-6-4.7-9.3-1.2-3.1-2.3-6.5-1.9-9.9,0-.2.3-.2.3,0,.5,6.5,4.5,12.3,8,17.7,6.7,4.1,14.8,9,23.2,8.5,13.9,0,28.4-10.5,28.2-25.3,0,0,0-.1.1-.1,0,0,.1,0,.2.1h0Z"/>
        <path class="cls-7" d="M79.8,366.2c1.9,11.1,12.8,17.6,23.4,17.2,5.5-.2,10.6-3.3,15.5-5.7,0,0-.5.5-.5.5,3-3.9,6.4-7.9,7.7-12.7,0-.2.3-.1.3,0-.4,5.2-3.4,9.7-6.2,13.9-5.5,3.5-11.6,7.2-18.3,6.9-6.6-.2-13.3-2.9-17.6-8-2.9-3.3-4.6-7.7-4.5-12.2,0-.2.3-.2.3,0h0Z"/>
      </g>
    </g>
  </g>
</svg>